<svg width="398" height="158" viewBox="0 0 398 158" fill="none" xmlns="http://www.w3.org/2000/svg">
<path d="M134.092 74.9619C132.688 65.0781 132.722 55.4784 135.84 46.0911C139.783 34.2173 148.909 28.2255 161.423 27.1435C173.577 26.0926 185.783 26.9319 197.962 26.666C199.971 26.6221 200.674 27.4689 200.635 29.3731C200.566 32.653 200.556 35.9371 200.646 39.216C200.704 41.2975 199.829 42.0109 197.769 41.997C188.205 41.9326 178.634 42.1916 169.078 41.9165C158.843 41.6218 154.564 46.6921 153.199 54.9387C152.191 61.0284 152.016 67.1412 153.445 73.2117C155.226 80.7733 159.468 84.1179 167.334 84.1562C171.566 84.1768 175.799 84.1049 180.03 84.1864C181.773 84.22 182.543 83.5114 182.541 81.8415C182.538 78.9811 182.539 76.1206 182.53 73.2601C182.523 71.5068 181.734 70.7296 179.867 70.7663C175.213 70.8578 170.555 70.7137 165.903 70.8292C163.668 70.8847 162.653 70.2611 162.78 67.8441C162.955 64.4876 162.875 61.1142 162.802 57.7502C162.765 56.04 163.395 55.3433 165.167 55.3508C176.17 55.3969 187.173 55.3957 198.176 55.3515C199.903 55.3446 200.627 55.9805 200.624 57.7041C200.601 70.9979 200.6 84.2918 200.637 97.5855C200.642 99.3629 199.83 99.9583 198.159 99.9226C185.558 99.6535 172.944 100.359 160.353 99.5609C146.816 98.7026 136.978 89.453 134.092 74.9619Z" fill="#315330"/>
<path d="M252.347 81.6924C252.346 78.9298 252.222 76.3943 252.378 73.8775C252.519 71.6144 251.851 70.7019 249.519 70.7842C245.035 70.9425 240.541 70.7732 236.052 70.8465C234.278 70.8754 233.552 70.2217 233.597 68.3504C233.681 64.8143 233.674 61.2729 233.589 57.7366C233.547 55.9869 234.193 55.3652 235.878 55.3728C246.408 55.4208 256.939 55.4002 267.469 55.3948C268.701 55.3942 269.753 55.479 269.744 57.2179C269.677 71.1975 269.642 85.1773 269.594 99.157C269.593 99.233 269.533 99.3088 269.479 99.437C269.301 99.5236 269.086 99.7202 268.87 99.7203C256.305 99.7294 243.727 100.323 231.178 99.5897C218.011 98.8204 208.361 89.309 205.842 74.9527C204.238 65.8139 204.596 56.6958 207.046 47.719C210.564 34.8302 219.539 28.2328 232.533 27.117C244.015 26.1311 255.538 26.8931 267.041 26.6753C268.982 26.6385 269.869 27.2185 269.776 29.3926C269.635 32.6717 269.64 35.9666 269.777 39.2462C269.866 41.3772 269.059 42.0094 267.079 41.9948C257.774 41.9262 248.468 41.9668 239.162 41.9732C230.161 41.9795 226.084 45.2542 224.401 54.3356C223.215 60.7383 223.092 67.23 224.588 73.626C226.273 80.8265 230.408 84.1481 237.532 84.2063C241.695 84.2403 245.859 84.1628 250.021 84.2413C251.676 84.2725 252.508 83.7041 252.347 81.6924Z" fill="#315330"/>
<path d="M125.33 42.6377C118.28 42.639 111.467 42.5877 104.655 42.6571C97.6009 42.729 93.1835 46.3696 91.6928 52.9015C91.1859 55.1226 91.5899 55.859 93.8871 55.8402C104.866 55.7504 115.847 55.8643 126.826 55.7592C129.144 55.7371 129.953 56.4759 129.824 58.8827C129.653 62.0342 129.712 65.2048 129.801 68.3632C129.852 70.1816 129.166 70.9438 127.43 70.9334C118.775 70.8819 110.119 70.8814 101.464 70.8354C98.9814 70.8222 96.4972 70.7658 94.018 70.6399C91.7464 70.5246 91.0994 71.6127 91.323 73.8424C91.9014 79.6118 95.1629 83.313 100.673 84.2557C102.732 84.6079 104.795 84.7881 106.888 84.7719C113.78 84.7187 120.673 84.7775 127.565 84.6779C129.263 84.6533 129.84 85.2473 129.802 86.9678C129.723 90.5431 129.757 94.1218 129.786 97.6987C129.796 98.9786 129.403 99.8215 128.049 99.8302C117.556 99.8982 107.013 100.325 96.5939 99.1577C84.3422 97.7849 77.0928 89.7665 74.1504 77.6847C71.6723 67.5096 72.0376 57.2379 74.9796 47.172C78.1643 36.2761 85.5019 30.2581 96.1601 28.3161C99.2461 27.7538 102.365 27.5382 105.479 27.4953C112.611 27.3971 119.745 27.517 126.877 27.4113C129.015 27.3796 129.971 27.991 129.821 30.3717C129.654 33.0223 129.784 35.6932 129.785 38.3553C129.787 42.6476 129.787 42.6476 125.33 42.6377Z" fill="#315330"/>
<path d="M330.613 70.8146C328.435 70.8145 326.501 70.9031 324.579 70.7913C322.419 70.6656 322.03 71.7444 322.276 73.5762C323.309 81.2646 327.68 84.8635 336.457 84.9678C344.17 85.0595 351.885 85.0539 359.597 84.9536C361.738 84.9257 362.625 85.4876 362.506 87.7663C362.332 91.1022 362.407 94.4549 362.482 97.7982C362.518 99.4185 361.939 99.9764 360.283 99.9618C351.144 99.881 342.005 99.9497 332.866 99.8714C318.061 99.7447 307.893 91.9006 304.312 77.5764C301.72 67.2108 302.242 56.8127 305.482 46.6705C308.86 36.0951 316.475 30.2127 327.316 28.321C333.794 27.1906 340.34 27.4475 346.871 27.4342C351.231 27.4253 355.591 27.4717 359.95 27.4109C361.724 27.3862 362.551 27.962 362.491 29.8713C362.384 33.2965 362.37 36.7308 362.498 40.1546C362.574 42.1975 361.715 42.7157 359.821 42.6986C351.941 42.6273 344.058 42.6064 336.178 42.6875C327.963 42.7722 322.856 47.6024 322.618 55.379C323.417 56.2261 324.486 55.8743 325.438 55.8767C336.756 55.9049 348.076 55.9617 359.394 55.8521C361.826 55.8285 362.646 56.5727 362.507 58.9871C362.325 62.1542 362.396 65.3418 362.49 68.5167C362.543 70.3305 361.945 71.0297 360.033 71.0048C350.31 70.8781 340.586 70.8666 330.613 70.8146Z" fill="#315330"/>
<path d="M28.7027 96.8997C19.0647 73.8891 9.49954 51.0562 0 28.38C0.832266 27.2825 1.70082 27.5069 2.47893 27.5022C7.02641 27.4751 11.5762 27.5586 16.1207 27.4335C18.0464 27.3805 19.0163 28.0897 19.7241 29.9342C25.1896 44.1776 30.7429 58.3858 36.2958 72.5938C36.676 73.5666 36.8413 74.6852 37.7092 75.4446C38.6939 74.9887 38.7497 73.9698 39.0706 73.1732C44.8013 58.9464 50.5631 44.732 56.1525 30.4468C57.0727 28.0949 58.2745 27.3072 60.6532 27.4207C64.4617 27.6025 68.2846 27.4501 72.1012 27.4744C73.0445 27.4804 74.0524 27.2463 74.8951 27.9426C75.2855 28.8556 74.7566 29.5878 74.4614 30.3236C65.5394 52.5574 56.5687 74.7707 47.7155 97.0332C46.828 99.2649 45.6714 100.07 43.3777 99.9507C39.8945 99.77 36.3903 99.7717 32.9064 99.9403C30.6812 100.048 29.3253 99.2892 28.7027 96.8997Z" fill="#315330"/>
<path d="M295.887 44.4626C295.881 61.9291 295.878 79.1457 295.869 96.3623C295.867 99.9107 295.855 99.9149 292.138 99.9243C288.073 99.9345 284.008 99.8932 279.945 99.961C278.159 99.9908 277.359 99.422 277.363 97.5262C277.406 74.9865 277.405 52.4467 277.359 29.907C277.356 28.0383 278.086 27.4167 279.906 27.4422C284.308 27.5039 288.714 27.5218 293.114 27.4124C295.259 27.3591 295.937 28.2608 295.906 30.2402C295.834 34.8967 295.885 39.5551 295.887 44.4626Z" fill="#315330"/>
<path d="M137.526 118.5C197.477 118.51 257.182 118.519 316.888 118.53C317.869 118.53 318.85 118.542 319.831 118.563C320.883 118.585 321.211 119.133 321.215 119.95C321.219 120.794 321.054 121.516 319.857 121.61C319.289 121.655 318.714 121.655 318.142 121.655C231.201 121.661 144.26 121.668 57.3189 121.648C56.0123 121.647 54.1411 122.233 53.9718 120.179C53.8906 119.194 54.2497 118.528 55.5737 118.543C56.3095 118.551 57.0457 118.528 57.7817 118.528C84.2812 118.518 110.781 118.509 137.526 118.5Z" fill="#315330"/>
<path d="M111.034 131.488C115.713 131.469 120.169 131.562 124.617 131.403C126.72 131.327 127.061 132.216 127.026 134.138C126.992 136.063 127.022 137.489 124.519 137.387C120.897 137.239 117.264 137.354 113.636 137.38C112.163 137.391 110.976 137.889 110.964 139.682C110.954 141.218 111.949 141.735 113.263 141.746C115.736 141.767 118.211 141.721 120.684 141.777C125.673 141.89 127.913 144.18 128.143 149.324C128.356 154.113 125.844 157.095 121.189 157.543C114.198 158.217 107.187 157.5 100.192 157.843C98.3088 157.936 97.7486 156.519 97.4617 155.107C96.9125 152.405 95.4511 151.383 92.8808 151.819C92.2383 151.928 91.5638 151.824 90.9044 151.836C86.5142 151.916 87.0952 151.18 85.478 155.658C84.5933 158.107 82.3205 158.621 78.5448 157.27C78.2061 156.561 78.6039 155.963 78.8521 155.347C81.7446 148.16 84.7061 141.002 87.4909 133.77C88.2591 131.775 89.44 131.319 91.2906 131.438C93.1529 131.558 94.9879 131.08 95.8635 133.731C97.0909 137.447 98.7221 141.02 100.2 144.645C101.676 148.267 103.176 151.878 104.94 156.159C104.969 154.393 104.897 153.242 105.641 152.023C109.116 152.023 112.727 152.043 116.338 152.01C117.402 152.001 118.481 151.932 119.524 151.728C120.639 151.51 121.616 150.931 121.491 149.525C121.368 148.139 120.386 147.731 119.198 147.72C117.384 147.704 115.569 147.726 113.756 147.691C112.77 147.672 111.77 147.662 110.804 147.486C104.964 146.424 102.342 140.873 105.007 135.303C106.201 132.806 108.344 131.894 111.034 131.488ZM92.2414 141.149C91.9546 140.788 92.0234 140.114 91.2619 140.061C90.549 141.845 89.5372 143.548 89.4919 145.664C90.94 145.955 92.1931 146.086 93.4809 145.585C93.6397 144.013 92.6917 142.831 92.2414 141.149Z" fill="#315330"/>
<path d="M163.696 156.628C163.629 148.875 163.631 141.353 163.571 133.832C163.558 132.222 164.135 131.715 165.736 131.51C169.571 131.02 172.138 132.072 173.754 136.007C175.218 139.573 177.402 142.828 179.616 146.851C179.616 142.14 179.759 138.152 179.572 134.18C179.413 130.798 181.667 131.724 183.423 131.533C185.327 131.325 186.369 131.762 186.332 134.09C186.221 141.098 186.243 148.109 186.323 155.118C186.347 157.272 185.456 157.781 183.489 157.957C180.429 158.23 178.577 157.263 177.193 154.32C175.219 150.121 172.751 146.166 169.94 142.244C169.94 146.213 169.878 150.182 169.958 154.149C170.034 157.961 169.94 158.123 166.113 157.886C165.217 157.83 164.229 157.935 163.696 156.628Z" fill="#315330"/>
<path d="M218.359 143.41C219.755 133.195 228.675 128.59 237.902 133.173C242.965 135.688 243.694 140.392 243.65 145.254C243.607 150.011 242.453 154.462 237.539 156.635C233.293 158.512 228.847 158.372 224.544 156.718C220.936 155.331 219.459 152.226 218.785 148.728C218.463 147.06 218.481 145.327 218.359 143.41ZM227.701 151.486C231.932 153.37 235.703 151.936 236.444 148.081C236.861 145.912 236.846 143.692 236.438 141.52C235.984 139.105 234.453 137.61 231.986 137.238C229.698 136.894 227.719 137.545 226.425 139.553C224.533 142.492 225.067 148.517 227.701 151.486Z" fill="#315330"/>
<path d="M267.247 138.757C268.209 142.203 268.353 145.512 267.688 148.81C266.181 156.292 261.634 158.353 255.088 157.954C246.042 157.402 241.765 149.737 244.434 139.534C245.543 135.292 247.981 132.564 252.18 131.785C255.166 131.23 258.15 131.209 261.075 132.145C264.172 133.136 266.176 135.341 267.247 138.757ZM261.365 143.055C260.986 138.849 259.21 136.806 255.962 136.841C252.708 136.875 250.862 139.027 250.64 143.157C250.569 144.482 250.602 145.825 250.72 147.147C251.019 150.494 252.981 152.457 255.919 152.456C258.799 152.456 260.945 150.422 261.292 147.247C261.426 146.012 261.361 144.752 261.365 143.055Z" fill="#315330"/>
<path d="M292.118 137.562C293.488 141.663 293.789 145.645 292.826 149.684C291.646 154.631 288.407 157.304 283.492 157.731C279.789 158.052 276.088 157.859 272.39 157.997C270.483 158.067 269.763 157.262 269.782 155.257C269.849 148.107 269.838 140.956 269.785 133.805C269.772 132.034 270.384 131.355 272.103 131.401C275.805 131.497 279.514 131.329 283.213 131.468C287.203 131.618 290.336 133.38 292.118 137.562ZM284.699 138.088C282.91 136.985 280.938 137.006 278.955 137.022C277.163 137.036 276.189 137.86 276.185 139.806C276.179 142.214 276.108 144.623 276.138 147.031C276.204 152.422 276.258 152.469 281.434 152.141C283.213 152.028 285.102 151.686 285.733 149.722C286.969 145.882 287.308 141.988 284.699 138.088Z" fill="#315330"/>
<path d="M397.852 14.4824C398.733 24.439 393.114 31.9812 383.797 33.6361C375.769 35.0621 367.672 29.4558 365.581 21.0228C363.315 11.8871 368.686 2.75477 377.65 0.500547C386.595 -1.7491 395.379 3.78643 397.554 13.0475C397.648 13.4513 397.717 13.8616 397.852 14.4824ZM368.842 18.1732C369.167 19.3732 369.4 20.6094 369.833 21.7671C372.096 27.8264 378.815 31.1797 384.976 29.3743C391.2 27.5507 395.209 20.8663 393.918 14.4653C392.596 7.912 386.617 3.18928 380.513 3.87742C373.558 4.66148 368.823 10.2808 368.842 18.1732Z" fill="#315330"/>
<path d="M156.827 141.591C158.836 146.858 160.769 151.948 162.698 157.028C158.666 158.945 156.382 158.06 155.037 154.088C154.457 152.376 153.632 151.561 151.959 151.781C151.194 151.882 150.392 151.91 149.635 151.778C146.569 151.24 144.685 152.304 143.934 155.898C143.475 158.091 140.641 158.515 137.406 157.144C137.447 155.328 138.421 153.819 139.015 152.205C141.285 146.033 143.736 139.94 145.943 133.741C146.664 131.716 147.794 131.283 149.521 131.422C151.222 131.559 153.061 130.843 153.826 133.605C154.569 136.286 155.759 138.817 156.827 141.591ZM151.099 142.978C150.67 141.982 150.558 140.778 149.557 139.856C148.889 141.878 147.881 143.492 147.977 145.532C149.204 145.979 150.305 145.991 151.358 145.581C151.888 144.719 151.324 144.056 151.099 142.978Z" fill="#315330"/>
<path d="M214.115 141.807C216.065 142.015 218.439 140.912 218.342 144.354C218.254 147.49 218.23 147.679 215.115 147.697C212.361 147.713 209.599 147.829 206.855 147.656C204.389 147.502 203.566 148.538 203.765 150.957C203.906 152.663 203.77 154.391 203.774 156.109C203.78 158.096 202.355 158.013 201.132 157.891C199.815 157.76 197.611 158.787 197.545 156.393C197.392 150.822 196.951 145.203 197.771 139.674C198.563 134.329 201.788 131.691 207.121 131.5C210.039 131.396 212.968 131.564 215.883 131.409C217.731 131.311 218.544 131.889 218.333 133.851C218.234 134.77 218.316 135.71 218.316 137.018C215.678 137.018 213.285 136.99 210.894 137.028C209.139 137.056 207.36 137.141 205.819 138.129C204.707 138.842 204.044 139.894 204.2 141.807C207.447 141.807 210.658 141.807 214.115 141.807Z" fill="#315330"/>
<path d="M137.359 151.263C137.357 152.631 137.252 153.755 137.372 154.857C137.632 157.241 136.478 158.027 134.03 158C130.007 157.956 129.885 157.944 129.881 154.183C129.874 147.587 129.955 140.989 129.822 134.396C129.777 132.172 130.482 131.157 132.93 131.472C133.469 131.542 134.039 131.548 134.575 131.466C136.797 131.129 137.425 132.059 137.389 134.047C137.285 139.699 137.356 145.353 137.359 151.263Z" fill="#315330"/>
<path d="M386.202 7.60763C391.078 9.49929 391.24 13.8951 386.664 17.4987C388.342 19.6822 390.002 21.8978 391.182 24.4326C387.619 25.4829 386.927 25.1616 384.936 22.4657C383.62 20.6837 382.986 18.0068 379.867 18.0114C379.137 19.6239 379.519 21.2423 379.441 22.8021C379.369 24.2298 378.907 24.9557 377.29 24.9056C375.775 24.8586 375.145 24.3345 375.165 22.805C375.222 18.3378 375.197 13.8694 375.176 9.40168C375.17 8.13406 375.489 7.245 377.019 7.29028C380.01 7.37885 383.014 7.00063 386.202 7.60763ZM385.007 13.7559C385.862 12.4875 385.674 11.4807 384.115 11.0607C382.567 10.6438 380.737 10.0464 379.726 11.7602C379.058 12.8938 379.228 14.3409 381.189 14.3966C382.37 14.4302 383.585 14.6171 385.007 13.7559Z" fill="#315330"/>
</svg>
